<?xml version="1.0" standalone="no"?>
<!DOCTYPE svg PUBLIC "-//W3C//DTD SVG 20010904//EN"
 "http://www.w3.org/TR/2001/REC-SVG-20010904/DTD/svg10.dtd">
<svg version="1.0" xmlns="http://www.w3.org/2000/svg"
 width="633.000000pt" height="633.000000pt" viewBox="0 0 633.000000 633.000000"
 preserveAspectRatio="xMidYMid meet">

<g transform="translate(0.000000,633.000000) scale(0.100000,-0.100000)"
fill="#000000" stroke="none">
<path d="M0 3165 l0 -3165 205 0 c157 0 205 3 205 13 0 6 -7 39 -14 72 -8 33
-19 116 -25 185 -7 69 -16 175 -21 236 -22 250 -17 286 92 639 65 211 195 435
295 511 21 15 40 30 43 34 18 20 116 95 175 132 78 51 218 121 312 158 33 13
68 29 76 35 8 6 33 46 55 90 22 44 83 147 136 228 53 82 96 157 96 166 0 22
-37 128 -84 243 -20 48 -36 90 -36 93 0 3 27 -23 60 -57 60 -61 71 -81 48 -92
-7 -3 -3 -3 8 -1 22 6 43 -22 26 -34 -11 -8 -12 -92 -1 -85 5 3 9 0 9 -6 0
-11 74 -124 102 -154 20 -22 24 -46 8 -46 -5 0 -10 -7 -10 -15 0 -8 5 -15 11
-15 5 0 7 -5 4 -10 -4 -6 -10 -8 -15 -5 -5 3 -8 -9 -7 -27 1 -18 -2 -44 -7
-57 -4 -13 -4 -21 0 -18 5 3 10 -23 11 -56 l2 -62 -23 70 c-12 39 -34 107 -47
152 -13 46 -27 83 -31 83 -11 0 -48 -42 -48 -55 0 -6 -12 -22 -26 -36 -14 -13
-36 -44 -48 -69 -13 -25 -46 -81 -73 -125 -28 -44 -54 -91 -58 -105 -6 -24 -5
-24 19 5 21 25 29 28 43 19 12 -8 17 -21 15 -39 -2 -15 2 -33 9 -41 7 -9 9
-31 6 -59 -6 -38 -4 -43 10 -38 11 4 14 3 9 -5 -4 -7 -15 -12 -24 -12 -16 -1
-16 -1 1 -11 23 -14 22 -49 -2 -49 -10 0 -21 -9 -24 -20 -7 -25 -2 -25 25 2
14 14 23 18 26 10 2 -7 10 -12 18 -12 9 0 12 -5 8 -11 -3 -6 0 -15 7 -20 9 -6
10 -9 2 -9 -6 0 -19 7 -27 16 -14 14 -16 13 -14 -8 2 -20 8 -23 44 -26 27 -1
46 3 54 13 7 8 21 15 30 15 10 0 21 6 23 13 3 6 6 -13 7 -43 1 -30 4 -46 6
-35 9 44 39 125 45 125 4 0 15 21 25 48 17 47 41 82 54 82 4 0 19 -12 33 -26
15 -15 36 -25 49 -25 85 6 221 5 225 -2 3 -5 17 -6 31 -2 20 5 30 1 42 -15 14
-19 20 -20 36 -10 18 12 73 74 149 168 19 24 35 40 35 36 0 -12 82 99 112 153
16 26 32 55 38 63 5 8 35 58 66 110 55 94 104 170 114 180 22 20 190 284 190
298 0 15 -13 15 -28 0 -7 -7 -12 -9 -12 -5 0 4 -9 3 -19 -2 -15 -9 -20 -7 -24
9 -3 11 -13 20 -24 21 -16 0 -16 1 2 9 17 7 17 9 3 9 -10 1 -18 5 -18 11 0 13
-86 -35 -128 -71 -35 -31 -72 -38 -72 -14 0 20 -37 39 -43 22 -3 -9 -13 -7
-39 6 -31 16 -42 17 -97 7 -34 -6 -76 -13 -92 -15 -57 -7 -224 -8 -250 -1 -17
5 -31 3 -40 -6 -40 -39 -190 -38 -269 2 -21 11 -47 20 -57 20 -10 0 -36 17
-58 37 -22 19 -50 42 -61 50 -32 20 -50 123 -32 178 12 38 16 41 93 66 44 15
97 36 118 49 34 20 48 22 160 20 67 -2 173 1 235 5 94 7 115 6 130 -7 9 -9 35
-18 57 -21 70 -9 152 -37 179 -62 22 -21 26 -22 26 -7 0 10 5 23 11 29 7 7 13
58 15 127 3 91 0 118 -11 130 -8 8 -15 19 -15 25 0 5 -17 23 -38 38 -20 15
-39 31 -40 36 -2 4 -8 5 -13 1 -5 -3 10 -28 35 -55 44 -49 46 -54 37 -126 -1
-15 -35 -17 -61 -3 -10 5 -61 15 -114 21 -90 12 -98 14 -141 52 -50 44 -55 65
-25 92 30 27 24 43 -22 55 -58 16 -102 5 -133 -32 -24 -28 -28 -30 -37 -15 -6
12 -22 17 -49 17 -26 0 -50 7 -66 20 -31 24 -63 25 -103 5 -35 -18 -36 -24
-10 -58 24 -30 27 -77 5 -77 -9 0 -20 -11 -25 -24 -6 -16 -24 -29 -52 -39 -42
-14 -160 -39 -164 -34 -17 21 -10 50 22 98 21 30 43 57 50 62 7 4 18 24 25 45
6 20 17 44 23 52 21 29 35 58 29 63 -3 4 -32 -20 -63 -51 -32 -31 -77 -73
-100 -92 -98 -81 -120 -109 -120 -149 0 -22 6 -44 15 -51 8 -7 15 -18 15 -25
0 -7 7 -15 15 -19 9 -3 15 -18 15 -38 0 -18 9 -48 21 -67 19 -31 19 -35 5 -50
-14 -13 -20 -13 -36 -3 -17 10 -20 10 -20 -2 0 -8 -9 -18 -21 -21 -26 -9 -41
-45 -25 -65 16 -20 37 -70 30 -70 -15 0 -69 71 -104 134 -37 70 -49 100 -92
245 -12 41 -24 68 -26 60 -9 -25 -44 -49 -72 -49 -43 0 -65 33 -63 93 4 121 1
219 -7 269 -5 32 -4 99 2 167 7 81 7 121 -1 138 -17 37 -13 62 14 88 16 17 35
25 60 25 33 0 35 -2 35 -35 0 -24 5 -35 15 -35 12 0 15 20 17 113 4 228 17
405 29 413 5 3 9 23 9 45 0 39 19 83 63 145 12 18 27 39 32 49 6 10 22 19 35
20 35 3 34 3 56 23 31 29 104 76 169 109 33 17 80 41 105 54 46 25 113 48 140
48 22 1 143 20 158 26 7 3 24 -2 37 -11 26 -17 193 -46 209 -36 5 3 6 0 3 -5
-10 -16 22 -21 83 -13 81 10 237 -7 275 -30 18 -11 41 -20 52 -20 11 0 32 -9
46 -20 14 -11 36 -20 50 -20 25 0 89 -44 85 -58 -4 -13 21 -72 30 -72 5 0 12
-14 16 -31 3 -18 13 -33 24 -35 24 -7 55 -63 43 -78 -7 -8 -5 -31 5 -69 8 -32
12 -62 9 -67 -3 -5 3 -31 14 -56 12 -26 21 -57 21 -69 0 -12 7 -28 15 -35 10
-8 15 -30 15 -64 0 -29 6 -75 14 -102 8 -27 18 -71 22 -98 l7 -50 20 25 c11
13 25 23 31 22 7 -2 27 13 46 32 68 71 143 66 175 -11 20 -48 20 -337 1 -444
-39 -213 -64 -260 -140 -260 -25 0 -70 37 -97 80 l-17 25 -11 -40 c-10 -38
-32 -234 -35 -320 -1 -40 -1 -40 39 -43 48 -3 94 -23 119 -51 10 -11 29 -61
41 -110 13 -50 33 -117 44 -150 12 -34 21 -84 21 -111 0 -50 0 -50 33 -50 23
0 55 -16 112 -55 43 -30 87 -55 97 -55 18 0 111 -43 136 -63 25 -20 163 -75
255 -102 81 -24 203 -77 217 -95 3 -4 50 -26 104 -49 83 -35 197 -99 216 -121
3 -3 50 -37 105 -75 55 -38 127 -93 160 -123 33 -30 76 -63 95 -74 19 -12 59
-48 88 -82 29 -34 71 -81 93 -106 22 -25 51 -65 64 -90 13 -25 37 -62 53 -83
17 -21 51 -80 75 -130 165 -339 186 -392 211 -544 8 -51 25 -112 38 -135 18
-35 22 -60 23 -139 l1 -97 51 -56 c56 -61 83 -107 83 -141 0 -12 -16 -55 -36
-96 -20 -41 -39 -91 -42 -111 l-5 -38 397 0 396 0 0 3165 0 3165 -3165 0
-3165 0 0 -3165z m2007 2663 c-3 -8 -6 -5 -6 6 -1 11 2 17 5 13 3 -3 4 -12 1
-19z m-250 -43 c-4 -8 -14 -15 -23 -15 -16 0 -16 2 1 20 20 22 31 20 22 -5z
m-19 -42 c-5 -25 -28 -28 -28 -4 0 12 6 21 16 21 9 0 14 -7 12 -17z m-270 -46
c-21 -42 -29 -48 -45 -35 -11 9 -16 9 -22 -1 -6 -10 -10 -9 -14 4 -4 10 0 18
10 22 9 4 25 15 35 25 25 25 52 14 36 -15z m94 9 c4 -17 1 -23 -9 -19 -14 5
-17 25 -6 36 9 10 10 9 15 -17z m-195 -38 c-3 -8 -6 -5 -6 6 -1 11 2 17 5 13
3 -3 4 -12 1 -19z m253 -33 c0 -22 -2 -24 -14 -13 -10 9 -11 17 -4 26 15 17
18 15 18 -13z m-314 -53 c-15 -15 -16 -15 -16 4 0 28 24 52 28 28 2 -9 -3 -24
-12 -32z m270 1 c-10 -10 -19 5 -10 18 6 11 8 11 12 0 2 -7 1 -15 -2 -18z
m-209 -5 c-3 -8 -6 -5 -6 6 -1 11 2 17 5 13 3 -3 4 -12 1 -19z m-96 -51 c-13
-13 -26 -3 -16 12 3 6 11 8 17 5 6 -4 6 -10 -1 -17z m-67 -145 c-7 -4 -20 -31
-30 -59 -21 -59 -30 -65 -40 -27 -5 18 -1 30 15 45 11 11 21 28 21 39 0 21 20
32 35 18 6 -6 6 -11 -1 -16z m-90 -114 c0 -18 -4 -31 -7 -28 -3 3 -13 -4 -21
-15 -15 -20 -15 -20 -16 3 0 21 28 71 40 72 3 0 5 -15 4 -32z m33 -640 c-3 -8
-6 -5 -6 6 -1 11 2 17 5 13 3 -3 4 -12 1 -19z m0 -40 c-3 -8 -6 -5 -6 6 -1 11
2 17 5 13 3 -3 4 -12 1 -19z m-587 -227 c0 -5 7 -17 16 -26 9 -8 18 -33 21
-55 5 -36 3 -40 -21 -50 -43 -16 -106 -13 -106 5 0 9 -7 18 -15 21 -9 4 -15
19 -15 39 0 26 7 37 33 54 33 21 87 28 87 12z m250 -500 c-14 -35 -45 -41 -55
-11 -8 27 3 43 26 37 13 -4 19 0 19 11 0 12 3 13 11 5 9 -9 9 -20 -1 -42z
m3681 40 c-16 -10 0 -17 59 -25 21 -2 25 -8 25 -37 0 -33 -1 -34 -45 -36 -38
-3 -50 2 -77 27 -18 16 -33 33 -33 38 0 5 15 16 33 25 34 17 61 23 38 8z
m-2424 -534 c10 -11 -60 -26 -77 -17 -10 6 -31 10 -47 11 l-28 1 25 8 c25 8
118 5 127 -3z m-387 -753 c0 -8 -5 -12 -10 -9 -6 4 -8 11 -5 16 9 14 15 11 15
-7z m-65 -493 c-8 -18 -30 -158 -34 -212 0 -9 -10 -26 -21 -39 l-20 -23 0 34
c0 19 6 58 13 86 8 29 12 65 10 80 -3 19 3 41 19 65 23 35 46 42 33 9z m173
-73 c2 -49 -3 -47 -12 5 -4 20 -3 37 2 37 5 0 9 -19 10 -42z m-240 -257 c-8
-12 -17 -18 -21 -15 -5 6 25 43 32 38 1 -1 -3 -12 -11 -23z"/>
<path d="M2510 4377 c-3 -3 -63 -10 -134 -17 -82 -8 -135 -17 -143 -26 -10 -9
-27 -12 -57 -8 -27 4 -46 2 -50 -5 -4 -6 -15 -11 -25 -11 -10 0 -24 -6 -30
-14 -17 -20 -110 -26 -149 -10 -19 8 -86 18 -150 24 -65 6 -143 15 -176 21
-92 16 -184 -3 -246 -52 l-49 -39 3 -82 c3 -59 0 -88 -10 -103 -23 -32 -17
-59 16 -79 25 -14 37 -16 62 -7 30 11 86 15 61 4 -18 -7 -16 -24 4 -38 14 -11
15 -16 5 -28 -7 -8 -9 -17 -5 -20 21 -12 178 -29 216 -23 63 10 200 57 218 75
9 9 26 22 37 30 12 8 26 27 32 41 14 34 59 60 102 60 26 0 45 -11 87 -49 88
-80 200 -116 336 -109 48 2 90 9 93 15 4 5 23 13 42 17 19 3 41 15 48 26 11
18 9 22 -20 40 -27 16 -29 20 -14 26 10 4 48 4 86 0 70 -6 114 4 124 29 9 24
-6 55 -30 61 -13 3 -24 12 -24 20 0 9 -11 14 -27 14 -16 0 -35 5 -43 10 -13 8
-12 10 3 10 9 0 17 5 17 10 0 6 18 10 40 10 40 0 40 0 40 38 0 41 -23 72 -54
72 -22 0 -55 17 -83 42 -15 14 -41 22 -85 25 -35 3 -65 3 -68 0z"/>
<path d="M3265 4130 c-12 -4 -27 -16 -35 -25 -12 -15 -12 -19 3 -29 9 -7 25
-33 36 -58 32 -75 48 -73 58 7 9 78 -17 122 -62 105z"/>
<path d="M3172 4055 c-27 -35 -28 -55 -2 -55 26 0 46 41 33 65 -9 15 -12 14
-31 -10z"/>
<path d="M1070 4060 c0 -5 10 -48 22 -96 l22 -86 19 51 c22 56 37 66 37 24 0
-22 2 -25 10 -13 20 31 11 58 -27 81 -21 13 -44 29 -51 36 -16 15 -32 17 -32
3z"/>
<path d="M3110 3931 c-19 -46 -4 -88 41 -118 26 -17 42 -36 46 -55 3 -15 10
-25 15 -22 5 3 6 14 3 23 -3 10 1 24 10 31 9 8 23 26 31 42 16 31 11 39 -56
90 -56 42 -75 44 -90 9z"/>
<path d="M1160 3801 c0 -28 5 -53 10 -56 6 -4 10 15 10 49 0 31 -4 56 -10 56
-5 0 -10 -22 -10 -49z"/>
<path d="M3125 3660 c-3 -5 1 -10 9 -10 9 0 16 5 16 10 0 6 -4 10 -9 10 -6 0
-13 -4 -16 -10z"/>
<path d="M2028 3135 c-2 -2 -31 -5 -65 -6 -39 -1 -80 -11 -112 -25 -46 -22
-49 -25 -42 -51 10 -37 63 -50 133 -34 27 6 90 11 139 11 100 0 139 15 139 55
0 20 -7 24 -67 34 -107 19 -120 20 -125 16z"/>
<path d="M3030 3045 c0 -32 3 -35 29 -35 34 0 48 -14 53 -55 l4 -30 14 28 c13
26 12 29 -26 68 -21 22 -47 45 -56 50 -16 8 -18 5 -18 -26z"/>
<path d="M3145 3050 c3 -5 8 -10 11 -10 2 0 4 5 4 10 0 6 -5 10 -11 10 -5 0
-7 -4 -4 -10z"/>
<path d="M2304 1828 c-21 -28 -57 -70 -80 -92 -22 -23 -44 -50 -48 -61 -5 -12
-10 -15 -13 -8 -4 11 -73 -29 -111 -64 -7 -7 -21 -13 -30 -13 -10 0 -28 -7
-40 -16 -18 -12 -20 -19 -12 -34 8 -16 6 -22 -15 -36 -14 -9 -25 -24 -25 -34
0 -17 -84 -100 -101 -100 -11 0 -32 -68 -24 -80 3 -6 -1 -25 -9 -42 -9 -18
-13 -35 -8 -40 9 -9 29 10 47 46 6 11 22 23 35 25 14 1 36 14 49 27 13 13 29
24 35 24 7 0 28 18 47 40 35 41 58 51 60 25 3 -27 4 -33 10 -39 10 -10 48 38
83 105 38 72 63 85 58 29 l-3 -35 29 31 c21 23 41 33 75 38 26 4 49 11 52 17
4 5 15 9 25 9 11 0 25 12 32 27 7 15 24 33 38 40 22 12 27 10 45 -12 19 -23
23 -24 40 -10 24 17 57 19 73 3 6 -6 52 -12 104 -14 51 -2 110 -7 131 -10 44
-8 53 12 10 22 -54 11 -234 81 -351 137 -13 6 -48 41 -78 79 -31 38 -63 68
-73 68 -10 0 -35 -23 -57 -52z"/>
<path d="M1430 1770 c0 -5 5 -10 11 -10 5 0 7 5 4 10 -3 6 -8 10 -11 10 -2 0
-4 -4 -4 -10z"/>
<path d="M1602 1698 c-7 -7 -12 -16 -12 -21 0 -5 7 -1 16 8 9 9 14 18 12 20
-2 3 -10 -1 -16 -7z"/>
<path d="M1677 1550 c3 -36 7 -67 9 -69 7 -8 2 84 -6 109 -5 15 -6 -1 -3 -40z"/>
<path d="M1900 1575 c0 -8 -4 -15 -10 -15 -5 0 -10 -6 -10 -14 0 -11 6 -11 35
2 26 12 32 19 23 29 -14 18 -38 16 -38 -2z"/>
<path d="M1341 1473 c7 -10 14 -19 15 -21 0 -1 9 7 19 18 18 20 17 20 -15 20
-29 0 -31 -2 -19 -17z"/>
<path d="M1543 1310 c4 -18 13 -40 19 -48 13 -16 58 -35 65 -28 7 7 -43 76
-68 94 -22 15 -22 15 -16 -18z"/>
<path d="M5030 1285 c-7 -8 -21 -15 -31 -15 -16 0 -18 -5 -13 -27 9 -36 9 -36
31 -23 21 14 46 60 31 60 -5 0 -6 5 -3 10 9 15 -1 12 -15 -5z"/>
<path d="M1719 1233 c-16 -4 -39 -43 -39 -67 0 -7 -14 -22 -30 -35 -34 -25
-33 -36 5 -43 21 -5 25 -2 20 13 -4 11 -2 19 4 19 6 0 11 9 11 21 0 12 11 34
25 51 20 24 34 52 23 47 -2 -1 -10 -3 -19 -6z"/>
<path d="M5074 1213 c-38 -5 -56 -37 -41 -70 6 -13 14 -23 19 -23 4 0 8 -6 8
-13 0 -15 47 -60 100 -97 19 -13 72 -54 116 -92 45 -37 86 -68 92 -68 14 0 -9
45 -37 71 -15 14 -19 27 -15 47 5 23 1 29 -25 38 -29 11 -34 26 -17 52 5 9 -2
24 -20 45 -44 48 -57 57 -77 51 -23 -7 -97 5 -97 16 0 5 9 12 20 15 18 6 30
37 13 33 -5 0 -22 -3 -39 -5z"/>
<path d="M3546 968 c3 -4 12 -8 20 -8 8 0 14 4 14 8 0 4 -9 8 -19 8 -11 0 -17
-4 -15 -8z"/>
<path d="M3436 733 c-6 -14 -5 -15 5 -6 7 7 10 15 7 18 -3 3 -9 -2 -12 -12z"/>
<path d="M3778 590 c2 -16 9 -30 14 -30 5 0 6 10 3 23 -11 35 -22 40 -17 7z"/>
<path d="M3485 516 c-4 -25 -11 -43 -16 -40 -5 3 -9 1 -9 -3 0 -12 39 -35 50
-28 5 3 7 20 4 38 -3 17 -7 40 -8 49 -5 36 -15 28 -21 -16z"/>
<path d="M3460 395 c-8 -10 -8 -19 0 -34 13 -25 14 -25 34 -5 14 14 18 14 31
0 21 -21 19 -58 -7 -86 l-21 -23 -17 21 c-31 38 -70 14 -70 -43 1 -39 21 -65
46 -59 15 4 24 -3 37 -31 24 -50 22 -73 -8 -87 -21 -10 -27 -8 -39 7 -9 13
-11 27 -5 42 5 13 4 25 -1 28 -15 9 -30 -4 -30 -24 0 -10 -9 -25 -19 -32 -15
-11 -17 -19 -10 -38 9 -23 18 -24 62 -6 12 5 17 2 17 -9 0 -23 155 -24 164 -1
3 8 11 14 18 13 7 -2 14 8 16 22 2 14 12 33 23 43 10 10 26 32 35 49 14 27 14
30 1 25 -11 -4 -14 -1 -10 9 3 7 9 14 14 14 5 0 9 6 9 13 0 10 -14 13 -47 11
-27 -1 -56 3 -65 8 -19 9 -25 53 -9 62 20 13 -5 61 -36 71 -17 6 -40 18 -50
26 -28 24 -50 29 -63 14z m130 -151 c0 -8 -5 -12 -10 -9 -6 4 -8 11 -5 16 9
14 15 11 15 -7z"/>
<path d="M4013 371 c-13 -11 -23 -23 -23 -28 0 -4 -20 -21 -44 -38 -24 -16
-48 -43 -55 -60 -10 -26 -9 -32 9 -46 18 -16 23 -15 80 15 34 18 60 38 60 47
0 8 9 25 20 37 16 17 19 30 14 57 -7 40 -26 45 -61 16z"/>
<path d="M3729 278 c-6 -21 -5 -39 2 -44 5 -3 9 6 9 20 0 21 -7 36 -11 24z"/>
<path d="M3029 197 c-18 -39 -14 -67 11 -67 18 0 40 44 40 81 0 31 -34 21 -51
-14z"/>
<path d="M3152 208 c-16 -16 -15 -53 3 -68 8 -6 36 -12 62 -11 26 0 62 -5 80
-11 25 -9 35 -9 47 1 23 20 19 40 -9 51 -14 5 -25 14 -25 19 0 21 -139 38
-158 19z"/>
<path d="M3814 144 c-3 -19 -4 -51 -1 -69 7 -42 -4 -51 -37 -30 -23 15 -25 15
-40 -7 -9 -12 -16 -26 -16 -30 0 -5 36 -8 80 -8 44 0 80 2 80 4 0 2 -6 16 -14
32 -10 19 -12 33 -5 45 14 26 11 59 -6 65 -8 4 -15 12 -15 20 0 29 -19 13 -26
-22z"/>
<path d="M3920 155 c0 -8 7 -15 16 -15 14 0 14 3 4 15 -7 8 -14 15 -16 15 -2
0 -4 -7 -4 -15z"/>
<path d="M2842 101 c-10 -6 -6 -10 15 -14 15 -3 36 -9 46 -12 13 -6 17 -2 17
14 0 17 -6 21 -32 21 -18 0 -39 -4 -46 -9z"/>
<path d="M3010 74 c0 -9 7 -14 17 -12 25 5 28 28 4 28 -12 0 -21 -6 -21 -16z"/>
<path d="M3146 83 c-13 -13 -5 -22 25 -28 42 -9 47 0 11 19 -16 8 -32 12 -36
9z"/>
<path d="M3238 43 c6 -2 18 -2 25 0 6 3 1 5 -13 5 -14 0 -19 -2 -12 -5z"/>
</g>
</svg>
